<svg width="24" height="24" viewBox="0 0 24 24" fill="none" xmlns="http://www.w3.org/2000/svg">
<g clip-path="url(#clip0_231_125)">
<mask id="mask0_231_125" style="mask-type:luminance" maskUnits="userSpaceOnUse" x="0" y="0" width="24" height="24">
<path d="M0 0H24V24H0V0Z" fill="white"/>
</mask>
<g mask="url(#mask0_231_125)">
<mask id="mask1_231_125" style="mask-type:luminance" maskUnits="userSpaceOnUse" x="0" y="0" width="24" height="24">
<path d="M0 0H24V24H0V0Z" fill="white"/>
</mask>
<g mask="url(#mask1_231_125)">
<path d="M15.2496 4.00134H8.75054C5.03117 4.00134 2.00165 7.03086 2.00165 10.7502V19.2489C2.00165 19.6588 2.34158 19.9988 2.7515 19.9988H15.2496C18.969 19.9988 21.9985 16.9693 21.9985 13.2499V10.7503C21.9985 7.03091 18.969 4.00134 15.2496 4.00134ZM20.4987 13.2498C20.4987 16.1394 18.1391 18.499 15.2496 18.499H3.50146V10.7502C3.50146 7.8507 5.86109 5.5011 8.75059 5.5011H15.2496C18.1392 5.5011 20.4988 7.8507 20.4988 10.7502V13.2498H20.4987Z" fill="white"/>
<path d="M8.9206 11.62C8.90058 11.56 8.87058 11.5 8.8306 11.4401L8.7106 11.2901C8.34066 10.9202 7.66079 10.9202 7.29085 11.2901C7.11085 11.4801 7.00089 11.7301 7.00089 12C7.00089 12.26 7.11085 12.5199 7.2908 12.7099C7.48079 12.8899 7.74076 12.9998 8.00073 12.9998C8.26069 12.9998 8.52066 12.8899 8.71064 12.7099C8.75058 12.6599 8.79061 12.6099 8.8306 12.5499C8.87058 12.4999 8.90058 12.44 8.9206 12.38C8.95055 12.32 8.97056 12.26 8.9806 12.2C8.99058 12.13 9.00056 12.06 9.00056 12C9.00056 11.94 8.99058 11.87 8.98055 11.8C8.97056 11.74 8.9506 11.68 8.9206 11.62ZM12.71 11.2901C12.66 11.2501 12.61 11.2001 12.55 11.1701C12.5 11.1302 12.4401 11.1002 12.3801 11.0801C12.3205 11.0497 12.2563 11.0295 12.1901 11.0201C11.9985 10.9798 11.7991 11.0008 11.6202 11.0801C11.4902 11.1302 11.3902 11.2001 11.2902 11.2901C11.2002 11.3901 11.1302 11.4901 11.0802 11.6201C11.0302 11.7401 11.0002 11.87 11.0002 12C11.0002 12.26 11.1102 12.5199 11.2902 12.7099C11.3902 12.7999 11.4902 12.8699 11.6202 12.9199C11.7402 12.9698 11.8701 12.9998 12.0001 12.9998C12.0601 12.9998 12.1301 12.9899 12.1901 12.9798C12.2563 12.9705 12.3205 12.9502 12.38 12.9198C12.44 12.8999 12.5 12.8699 12.55 12.8299C12.61 12.7999 12.66 12.7499 12.71 12.7099C12.89 12.5199 12.9999 12.26 12.9999 12C12.9999 11.87 12.9699 11.74 12.92 11.6201C12.8699 11.4901 12.8 11.3901 12.71 11.2901ZM15.8095 11.0202C15.7433 11.0295 15.6791 11.0498 15.6195 11.0802C15.5595 11.1002 15.4995 11.1302 15.4395 11.1701L15.2896 11.2901C15.1996 11.3901 15.1296 11.5001 15.0796 11.6201C15.0296 11.7401 14.9996 11.87 14.9996 12C14.9996 12.27 15.1096 12.5199 15.2895 12.7099L15.4395 12.8299C15.4995 12.8699 15.5595 12.8999 15.6195 12.9199C15.6795 12.9499 15.7395 12.9698 15.8095 12.9799C15.8695 12.9899 15.9394 12.9998 15.9994 12.9998C16.2594 12.9998 16.5194 12.8899 16.7094 12.7099L16.8293 12.5599C16.8693 12.4999 16.8993 12.4399 16.9193 12.3799C16.9493 12.3199 16.9693 12.2599 16.9793 12.2C16.9893 12.13 16.9993 12.06 16.9993 12C16.9993 11.74 16.8893 11.4801 16.7094 11.2901C16.4694 11.0602 16.1294 10.9602 15.8095 11.0202Z" fill="white"/>
</g>
</g>
</g>
<defs>
<clipPath id="clip0_231_125">
<rect width="24" height="24" fill="white"/>
</clipPath>
</defs>
</svg>
