<svg width="15" height="15" viewBox="0 0 15 15" fill="none" xmlns="http://www.w3.org/2000/svg">
<path d="M8.4375 5.15625C8.4375 5.28057 8.38811 5.3998 8.30021 5.48771C8.2123 5.57561 8.09307 5.625 7.96875 5.625C7.34715 5.625 6.75101 5.87193 6.31147 6.31147C5.87193 6.75101 5.625 7.34715 5.625 7.96875C5.625 8.09307 5.57561 8.2123 5.48771 8.30021C5.3998 8.38811 5.28057 8.4375 5.15625 8.4375C5.03193 8.4375 4.9127 8.38811 4.82479 8.30021C4.73689 8.2123 4.6875 8.09307 4.6875 7.96875C4.6875 7.34715 4.44057 6.75101 4.00103 6.31147C3.56149 5.87193 2.96535 5.625 2.34375 5.625C2.21943 5.625 2.1002 5.57561 2.01229 5.48771C1.92439 5.3998 1.875 5.28057 1.875 5.15625C1.875 5.03193 1.92439 4.9127 2.01229 4.82479C2.1002 4.73689 2.21943 4.6875 2.34375 4.6875C2.96535 4.6875 3.56149 4.44057 4.00103 4.00103C4.44057 3.56149 4.6875 2.96535 4.6875 2.34375C4.6875 2.21943 4.73689 2.1002 4.82479 2.01229C4.9127 1.92439 5.03193 1.875 5.15625 1.875C5.28057 1.875 5.3998 1.92439 5.48771 2.01229C5.57561 2.1002 5.625 2.21943 5.625 2.34375C5.625 2.96535 5.87193 3.56149 6.31147 4.00103C6.75101 4.44057 7.34715 4.6875 7.96875 4.6875C8.09307 4.6875 8.2123 4.73689 8.30021 4.82479C8.38811 4.9127 8.4375 5.03193 8.4375 5.15625Z" fill="url(#paint0_linear_228_14)"/>
<path d="M8.90625 11.25C8.90625 11.3743 8.85686 11.4935 8.76896 11.5815C8.68105 11.6694 8.56182 11.7188 8.4375 11.7188C8.18886 11.7188 7.9504 11.8175 7.77459 11.9933C7.59877 12.1692 7.5 12.4076 7.5 12.6562C7.5 12.7806 7.45061 12.8998 7.36271 12.9877C7.2748 13.0756 7.15557 13.125 7.03125 13.125C6.90693 13.125 6.7877 13.0756 6.69979 12.9877C6.61189 12.8998 6.5625 12.7806 6.5625 12.6562C6.5625 12.4076 6.46373 12.1692 6.28791 11.9933C6.1121 11.8175 5.87364 11.7188 5.625 11.7188C5.50068 11.7188 5.38145 11.6694 5.29354 11.5815C5.20564 11.4935 5.15625 11.3743 5.15625 11.25C5.15625 11.1257 5.20564 11.0065 5.29354 10.9185C5.38145 10.8306 5.50068 10.7812 5.625 10.7812C5.87364 10.7812 6.1121 10.6825 6.28791 10.5067C6.46373 10.3308 6.5625 10.0924 6.5625 9.84375C6.5625 9.71943 6.61189 9.6002 6.69979 9.51229C6.7877 9.42439 6.90693 9.375 7.03125 9.375C7.15557 9.375 7.2748 9.42439 7.36271 9.51229C7.45061 9.6002 7.5 9.71943 7.5 9.84375C7.5 10.0924 7.59877 10.3308 7.77459 10.5067C7.9504 10.6825 8.18886 10.7812 8.4375 10.7812C8.56182 10.7812 8.68105 10.8306 8.76896 10.9185C8.85686 11.0065 8.90625 11.1257 8.90625 11.25Z" fill="url(#paint1_linear_228_14)"/>
<path d="M13.125 7.96875C13.125 8.09307 13.0756 8.2123 12.9877 8.30021C12.8998 8.38811 12.7806 8.4375 12.6562 8.4375C12.159 8.4375 11.6821 8.63504 11.3304 8.98668C10.9788 9.33831 10.7812 9.81522 10.7812 10.3125C10.7812 10.4368 10.7319 10.556 10.644 10.644C10.556 10.7319 10.4368 10.7812 10.3125 10.7812C10.1882 10.7812 10.069 10.7319 9.98104 10.644C9.89314 10.556 9.84375 10.4368 9.84375 10.3125C9.84375 9.81522 9.64621 9.33831 9.29457 8.98668C8.94294 8.63504 8.46603 8.4375 7.96875 8.4375C7.84443 8.4375 7.7252 8.38811 7.63729 8.30021C7.54939 8.2123 7.5 8.09307 7.5 7.96875C7.5 7.84443 7.54939 7.7252 7.63729 7.63729C7.7252 7.54939 7.84443 7.5 7.96875 7.5C8.46603 7.5 8.94294 7.30246 9.29457 6.95083C9.64621 6.59919 9.84375 6.12228 9.84375 5.625C9.84375 5.50068 9.89314 5.38145 9.98104 5.29354C10.069 5.20564 10.1882 5.15625 10.3125 5.15625C10.4368 5.15625 10.556 5.20564 10.644 5.29354C10.7319 5.38145 10.7812 5.50068 10.7812 5.625C10.7812 6.12228 10.9788 6.59919 11.3304 6.95083C11.6821 7.30246 12.159 7.5 12.6562 7.5C12.7806 7.5 12.8998 7.54939 12.9877 7.63729C13.0756 7.7252 13.125 7.84443 13.125 7.96875Z" fill="url(#paint2_linear_228_14)"/>
<defs>
<linearGradient id="paint0_linear_228_14" x1="5.15625" y1="1.875" x2="5.15625" y2="8.4375" gradientUnits="userSpaceOnUse">
<stop stop-color="#DB6767"/>
<stop offset="1" stop-color="#C9C9C9" stop-opacity="0.23"/>
</linearGradient>
<linearGradient id="paint1_linear_228_14" x1="7.03125" y1="9.375" x2="7.03125" y2="13.125" gradientUnits="userSpaceOnUse">
<stop stop-color="#DB6767"/>
<stop offset="1" stop-color="#C9C9C9" stop-opacity="0.23"/>
</linearGradient>
<linearGradient id="paint2_linear_228_14" x1="10.3125" y1="5.15625" x2="10.3125" y2="10.7812" gradientUnits="userSpaceOnUse">
<stop stop-color="#DB6767"/>
<stop offset="1" stop-color="#C9C9C9" stop-opacity="0.23"/>
</linearGradient>
</defs>
</svg>
