<svg width="12" height="12" viewBox="0 0 12 12" fill="none" xmlns="http://www.w3.org/2000/svg">
<g clip-path="url(#clip0_215_35)">
<path d="M6.73961 3.1057L1.05706 9.36227C1.03238 9.38947 1.01305 9.42149 1.00019 9.45652C0.987323 9.49154 0.981171 9.52888 0.982083 9.5664C0.982995 9.60391 0.990952 9.64088 1.0055 9.67517C1.02005 9.70946 1.04091 9.74042 1.06688 9.76627L2.6487 11.3417C2.70111 11.3937 2.77108 11.4219 2.84327 11.42C2.91546 11.418 2.98398 11.3862 3.03379 11.3314L8.71524 5.07541L6.73961 3.1057ZM10.9292 2.6377C10.9789 2.58279 11.0058 2.50948 11.0039 2.43385C11.0021 2.35823 10.9717 2.28645 10.9194 2.23427L9.33761 0.658838C9.31168 0.632944 9.28114 0.612655 9.24772 0.599129C9.21431 0.585603 9.17868 0.579105 9.14287 0.580008C9.10706 0.58091 9.07176 0.589194 9.03901 0.604386C9.00626 0.619579 8.97668 0.641383 8.95197 0.668552L7.49015 2.27827L9.46579 4.24741L10.9292 2.6377ZM9.35288 9.62798L8.80742 9.64227L8.79433 9.07084C8.79254 8.9958 8.77666 8.92186 8.74759 8.85325C8.71853 8.78464 8.67685 8.7227 8.62493 8.67096C8.57302 8.61923 8.51188 8.57871 8.44502 8.55173C8.37815 8.52474 8.30687 8.51182 8.23524 8.5137C8.16361 8.51557 8.09304 8.53221 8.02754 8.56266C7.96205 8.59311 7.90293 8.63678 7.85354 8.69116C7.80416 8.74555 7.76548 8.8096 7.73973 8.87965C7.71397 8.94969 7.70163 9.02437 7.70342 9.09941L7.71706 9.67084L7.17161 9.68455C7.02694 9.68834 6.88964 9.75218 6.78991 9.86202C6.69017 9.97186 6.63617 10.1187 6.63979 10.2703C6.6434 10.4218 6.70434 10.5657 6.80919 10.6701C6.91404 10.7746 7.05422 10.8312 7.19888 10.8274L7.74433 10.8131L7.75797 11.3846C7.75976 11.4596 7.77564 11.5335 7.80471 11.6021C7.83377 11.6708 7.87546 11.7327 7.92737 11.7844C7.97929 11.8362 8.04042 11.8767 8.10729 11.9037C8.17415 11.9306 8.24543 11.9436 8.31706 11.9417C8.38869 11.9398 8.45927 11.9232 8.52476 11.8927C8.59025 11.8623 8.64938 11.8186 8.69876 11.7642C8.74815 11.7098 8.78682 11.6458 8.81258 11.5757C8.83833 11.5057 8.85067 11.431 8.84888 11.356L8.83524 10.7846L9.3807 10.7708C9.45233 10.769 9.5229 10.7523 9.5884 10.7219C9.65389 10.6914 9.71301 10.6478 9.7624 10.5934C9.81178 10.539 9.85046 10.4749 9.87621 10.4049C9.90197 10.3348 9.91431 10.2602 9.91252 10.1851C9.91072 10.1101 9.89484 10.0361 9.86578 9.96754C9.83671 9.89892 9.79503 9.83698 9.74311 9.78525C9.6912 9.73351 9.63006 9.693 9.5632 9.66601C9.49634 9.63903 9.42505 9.62611 9.35343 9.62798H9.35288ZM1.6107 5.25712L1.62433 5.82855C1.62612 5.90359 1.64201 5.97753 1.67107 6.04614C1.70014 6.11475 1.74182 6.17669 1.79374 6.22843C1.84565 6.28016 1.90679 6.32068 1.97365 6.34767C2.04051 6.37465 2.11179 6.38757 2.18342 6.3857C2.25505 6.38382 2.32563 6.36718 2.39112 6.33673C2.45662 6.30628 2.51574 6.26262 2.56513 6.20823C2.61451 6.15384 2.65318 6.08979 2.67894 6.01975C2.7047 5.9497 2.71703 5.87502 2.71524 5.79998L2.70161 5.22855L3.24706 5.21427C3.31869 5.21239 3.38927 5.19575 3.45476 5.1653C3.52025 5.13485 3.57938 5.09119 3.62876 5.0368C3.67815 4.98241 3.71682 4.91836 3.74258 4.84832C3.76833 4.77827 3.78067 4.70359 3.77888 4.62855C3.77709 4.55351 3.76121 4.47957 3.73214 4.41096C3.70307 4.34235 3.66139 4.28041 3.60948 4.22868C3.55756 4.17694 3.49643 4.13642 3.42956 4.10944C3.3627 4.08246 3.29142 4.06953 3.21979 4.07141L2.67433 4.0857L2.6607 3.51427C2.65715 3.36271 2.59629 3.21884 2.49149 3.11431C2.38669 3.00977 2.24654 2.95312 2.10188 2.95684C1.95722 2.96055 1.81989 3.02432 1.7201 3.1341C1.62031 3.24389 1.56624 3.39071 1.56979 3.54227L1.58342 4.1137L1.03797 4.12798C0.893307 4.13177 0.756005 4.19561 0.65627 4.30545C0.556534 4.41529 0.502535 4.56214 0.506152 4.7137C0.509769 4.86525 0.570705 5.00909 0.675554 5.11357C0.780404 5.21806 0.920579 5.27463 1.06524 5.27084L1.6107 5.25712ZM9.8307 6.7577L8.73979 6.78627L8.76706 7.92855L9.85797 7.89998L9.8307 6.7577ZM6.41015 0.558838L5.31924 0.587409L5.34652 1.73027L6.43742 1.7017L6.41015 0.558838ZM4.80106 1.74455L3.71015 1.77312L3.73742 2.91541L4.82833 2.88684L4.80106 1.74455ZM3.13797 0.643981L2.04761 0.672552L2.07488 1.81541L3.16524 1.78684L3.13797 0.643981ZM11.4256 5.00112L10.3347 5.0297L10.362 6.17255L11.4529 6.14398L11.4256 5.00112ZM11.4938 7.85712L10.4029 7.8857L10.4302 9.02855L11.5211 8.99998L11.4938 7.85712Z" fill="url(#paint0_linear_215_35)"/>
</g>
<defs>
<linearGradient id="paint0_linear_215_35" x1="6.01352" y1="0.558838" x2="6.01352" y2="11.9419" gradientUnits="userSpaceOnUse">
<stop stop-color="#F58181"/>
<stop offset="1" stop-color="white" stop-opacity="0.4"/>
</linearGradient>
<clipPath id="clip0_215_35">
<rect width="12" height="12" fill="white"/>
</clipPath>
</defs>
</svg>
