<svg width="25" height="25" viewBox="0 0 25 25" fill="none" xmlns="http://www.w3.org/2000/svg">
<g clip-path="url(#clip0_203_118)">
<path d="M22.9009 2.09777L2.70671 9.84313L8.82616 12.7667L18.1971 6.75068L12.3285 16.3841L15.1843 22.2963L22.8968 2.09777H22.9009ZM0.493504 9.05171L23.8984 0.0754714C23.9931 0.0293372 24.0964 0.00334433 24.2018 -0.000858438C24.3071 -0.00506121 24.4122 0.0126178 24.5103 0.0510573C24.7011 0.123549 24.8553 0.268579 24.9391 0.454327C25.0228 0.640075 25.0293 0.851373 24.957 1.04186L15.992 24.5058C15.938 24.6453 15.8443 24.766 15.7225 24.8532C15.6007 24.9404 15.4561 24.9903 15.3063 24.9968C15.1565 25.0033 15.0081 24.966 14.8791 24.8897C14.7502 24.8133 14.6465 24.7011 14.5805 24.5668L9.95622 15.0047L0.436389 10.4555C0.301323 10.3908 0.188205 10.2881 0.111003 10.1601C0.0338023 10.032 -0.00410113 9.88418 0.00197366 9.73487C0.00804846 9.58556 0.0578355 9.4413 0.145187 9.31989C0.232538 9.19848 0.353628 9.10525 0.493504 9.05171Z" fill="white"/>
</g>
<defs>
<clipPath id="clip0_203_118">
<rect width="25" height="25" fill="white"/>
</clipPath>
</defs>
</svg>
