<svg width="31" height="31" viewBox="0 0 31 31" fill="none" xmlns="http://www.w3.org/2000/svg">
<path d="M17.4375 10.6562C17.4375 10.9132 17.3354 11.1596 17.1538 11.3413C16.9721 11.5229 16.7257 11.625 16.4688 11.625C15.1841 11.625 13.9521 12.1353 13.0437 13.0437C12.1353 13.9521 11.625 15.1841 11.625 16.4688C11.625 16.7257 11.5229 16.9721 11.3413 17.1538C11.1596 17.3354 10.9132 17.4375 10.6562 17.4375C10.3993 17.4375 10.1529 17.3354 9.97124 17.1538C9.78956 16.9721 9.6875 16.7257 9.6875 16.4688C9.6875 15.1841 9.17718 13.9521 8.2688 13.0437C7.36042 12.1353 6.12839 11.625 4.84375 11.625C4.58682 11.625 4.34042 11.5229 4.15874 11.3413C3.97706 11.1596 3.875 10.9132 3.875 10.6562C3.875 10.3993 3.97706 10.1529 4.15874 9.97124C4.34042 9.78956 4.58682 9.6875 4.84375 9.6875C6.12839 9.6875 7.36042 9.17718 8.2688 8.2688C9.17718 7.36042 9.6875 6.12839 9.6875 4.84375C9.6875 4.58682 9.78956 4.34042 9.97124 4.15874C10.1529 3.97706 10.3993 3.875 10.6562 3.875C10.9132 3.875 11.1596 3.97706 11.3413 4.15874C11.5229 4.34042 11.625 4.58682 11.625 4.84375C11.625 6.12839 12.1353 7.36042 13.0437 8.2688C13.9521 9.17718 15.1841 9.6875 16.4688 9.6875C16.7257 9.6875 16.9721 9.78956 17.1538 9.97124C17.3354 10.1529 17.4375 10.3993 17.4375 10.6562Z" fill="white"/>
<path d="M18.4062 23.25C18.4062 23.5069 18.3042 23.7533 18.1225 23.935C17.9408 24.1167 17.6944 24.2188 17.4375 24.2188C16.9236 24.2188 16.4308 24.4229 16.0675 24.7862C15.7041 25.1496 15.5 25.6424 15.5 26.1562C15.5 26.4132 15.3979 26.6596 15.2163 26.8413C15.0346 27.0229 14.7882 27.125 14.5312 27.125C14.2743 27.125 14.0279 27.0229 13.8462 26.8413C13.6646 26.6596 13.5625 26.4132 13.5625 26.1562C13.5625 25.6424 13.3584 25.1496 12.995 24.7862C12.6317 24.4229 12.1389 24.2188 11.625 24.2188C11.3681 24.2188 11.1217 24.1167 10.94 23.935C10.7583 23.7533 10.6562 23.5069 10.6562 23.25C10.6562 22.9931 10.7583 22.7467 10.94 22.565C11.1217 22.3833 11.3681 22.2812 11.625 22.2812C12.1389 22.2812 12.6317 22.0771 12.995 21.7138C13.3584 21.3504 13.5625 20.8576 13.5625 20.3438C13.5625 20.0868 13.6646 19.8404 13.8462 19.6587C14.0279 19.4771 14.2743 19.375 14.5312 19.375C14.7882 19.375 15.0346 19.4771 15.2163 19.6587C15.3979 19.8404 15.5 20.0868 15.5 20.3438C15.5 20.8576 15.7041 21.3504 16.0675 21.7138C16.4308 22.0771 16.9236 22.2812 17.4375 22.2812C17.6944 22.2812 17.9408 22.3833 18.1225 22.565C18.3042 22.7467 18.4062 22.9931 18.4062 23.25Z" fill="white"/>
<path d="M27.125 16.4688C27.125 16.7257 27.0229 16.9721 26.8413 17.1538C26.6596 17.3354 26.4132 17.4375 26.1562 17.4375C25.1285 17.4375 24.1429 17.8458 23.4162 18.5725C22.6895 19.2992 22.2812 20.2848 22.2812 21.3125C22.2812 21.5694 22.1792 21.8158 21.9975 21.9975C21.8158 22.1792 21.5694 22.2812 21.3125 22.2812C21.0556 22.2812 20.8092 22.1792 20.6275 21.9975C20.4458 21.8158 20.3438 21.5694 20.3438 21.3125C20.3438 20.2848 19.9355 19.2992 19.2088 18.5725C18.4821 17.8458 17.4965 17.4375 16.4688 17.4375C16.2118 17.4375 15.9654 17.3354 15.7837 17.1538C15.6021 16.9721 15.5 16.7257 15.5 16.4688C15.5 16.2118 15.6021 15.9654 15.7837 15.7837C15.9654 15.6021 16.2118 15.5 16.4688 15.5C17.4965 15.5 18.4821 15.0917 19.2088 14.365C19.9355 13.6383 20.3438 12.6527 20.3438 11.625C20.3438 11.3681 20.4458 11.1217 20.6275 10.94C20.8092 10.7583 21.0556 10.6562 21.3125 10.6562C21.5694 10.6562 21.8158 10.7583 21.9975 10.94C22.1792 11.1217 22.2812 11.3681 22.2812 11.625C22.2812 12.6527 22.6895 13.6383 23.4162 14.365C24.1429 15.0917 25.1285 15.5 26.1562 15.5C26.4132 15.5 26.6596 15.6021 26.8413 15.7837C27.0229 15.9654 27.125 16.2118 27.125 16.4688Z" fill="white"/>
</svg>
