<svg width="24" height="24" viewBox="0 0 24 24" fill="none" xmlns="http://www.w3.org/2000/svg">
<g clip-path="url(#clip0_229_77)">
<path d="M16.5 12H21C21.1989 12 21.3897 12.079 21.5303 12.2197C21.671 12.3603 21.75 12.5511 21.75 12.75V18.75C21.75 18.9489 21.671 19.1397 21.5303 19.2803C21.3897 19.421 21.1989 19.5 21 19.5H3C2.80109 19.5 2.61032 19.421 2.46967 19.2803C2.32902 19.1397 2.25 18.9489 2.25 18.75V12.75C2.25 12.5511 2.32902 12.3603 2.46967 12.2197C2.61032 12.079 2.80109 12 3 12H7.5" stroke="black" stroke-linecap="round" stroke-linejoin="round"/>
<path d="M12 12V2.25" stroke="black" stroke-linecap="round" stroke-linejoin="round"/>
<path d="M7.5 6.75L12 2.25L16.5 6.75" stroke="black" stroke-linecap="round" stroke-linejoin="round"/>
<path d="M17.625 16.6875C18.1428 16.6875 18.5625 16.2678 18.5625 15.75C18.5625 15.2322 18.1428 14.8125 17.625 14.8125C17.1072 14.8125 16.6875 15.2322 16.6875 15.75C16.6875 16.2678 17.1072 16.6875 17.625 16.6875Z" fill="black"/>
</g>
<defs>
<clipPath id="clip0_229_77">
<rect width="24" height="24" fill="white"/>
</clipPath>
</defs>
</svg>
